<?xml version="1.0" encoding="UTF-8"?>
<svg width="700pt" height="700pt" version="1.1" viewBox="0 0 700 700" xmlns="http://www.w3.org/2000/svg" xmlns:xlink="http://www.w3.org/1999/xlink">
  <path d="m466.08 155.04c-0.77344 0.36719-1.5898 0.53906-2.3945 0.53906-2.0938 0.003907-4.1055-1.1797-5.0625-3.2031-5.0078-10.578-11.523-25.461-11.922-26.363-24.332 95.699-124.82 271.55-281.33 311.25-0.46094 0.11719-0.92578 0.17188-1.3828 0.17188-2.5 0-4.7812-1.6875-5.4219-4.2227-0.76172-3 1.0547-6.0469 4.0508-6.8047 151.93-38.539 249.54-209.7 273.17-302.83-3.5156 3.1758-17.871 16.312-23.527 21.453-2.2891 2.082-5.832 1.9102-7.9102-0.37891-2.0781-2.2891-1.9102-5.8281 0.37891-7.9102 5.6406-5.125 25.395-23.207 36.371-32.926 1.332-1.1797 3.1367-1.6523 4.8828-1.2852 1.7383 0.37109 3.1953 1.543 3.9297 3.168 3.6328 8.0078 13.898 31.469 18.836 41.891 1.3203 2.7891 0.12891 6.1328-2.668 7.4531z"/>
  <use x="70" y="644" xlink:href="#g"/>
  <use x="90.550781" y="644" xlink:href="#b"/>
  <use x="104.359375" y="644" xlink:href="#e"/>
  <use x="123.347656" y="644" xlink:href="#a"/>
  <use x="142.242188" y="644" xlink:href="#d"/>
  <use x="155.628906" y="644" xlink:href="#e"/>
  <use x="174.617188" y="644" xlink:href="#j"/>
  <use x="204.410156" y="644" xlink:href="#i"/>
  <use x="224.453125" y="644" xlink:href="#h"/>
  <use x="252.453125" y="644" xlink:href="#g"/>
  <use x="273" y="644" xlink:href="#a"/>
  <use x="291.894531" y="644" xlink:href="#b"/>
  <use x="305.703125" y="644" xlink:href="#c"/>
  <use x="324.9375" y="644" xlink:href="#u"/>
  <use x="344.285156" y="644" xlink:href="#t"/>
  <use x="362.539062" y="644" xlink:href="#a"/>
  <use x="381.429688" y="644" xlink:href="#f"/>
  <use x="411.113281" y="644" xlink:href="#s"/>
  <use x="442" y="644" xlink:href="#a"/>
  <use x="460.890625" y="644" xlink:href="#a"/>
  <use x="479.789062" y="644" xlink:href="#b"/>
  <use x="493.59375" y="644" xlink:href="#d"/>
  <use x="70" y="672" xlink:href="#r"/>
  <use x="82.183594" y="672" xlink:href="#b"/>
  <use x="95.992188" y="672" xlink:href="#c"/>
  <use x="115.226562" y="672" xlink:href="#q"/>
  <use x="154.152344" y="672" xlink:href="#d"/>
  <use x="167.535156" y="672" xlink:href="#p"/>
  <use x="187.46875" y="672" xlink:href="#e"/>
  <use x="216.207031" y="672" xlink:href="#o"/>
  <use x="239.640625" y="672" xlink:href="#c"/>
  <use x="258.878906" y="672" xlink:href="#n"/>
  <use x="278.8125" y="672" xlink:href="#f"/>
  <use x="308.492188" y="672" xlink:href="#m"/>
  <use x="329.015625" y="672" xlink:href="#b"/>
  <use x="342.820312" y="672" xlink:href="#c"/>
  <use x="362.058594" y="672" xlink:href="#l"/>
  <use x="371.65625" y="672" xlink:href="#e"/>
  <use x="390.648438" y="672" xlink:href="#k"/>
  <use x="407.242188" y="672" xlink:href="#d"/>
</svg>
