<?xml version="1.0" encoding="UTF-8"?>
<svg width="700pt" height="700pt" version="1.1" viewBox="0 0 700 700" xmlns="http://www.w3.org/2000/svg" xmlns:xlink="http://www.w3.org/1999/xlink">
  <path d="m99.289 33.32c3.2461-4.2578 8.793-0.22266 11.199 2.6875 107.91 127.79 226.24 246.57 353.64 354.82 30.91 26.266 62.383 51.855 94.305 76.832-4.1992-9.1289-8.0625-18.48-11.535-27.945-0.95313-2.6328-1.8477-6.6641-3.1367-10.527-0.67188 0.16797-1.457 0.16797-2.3516 0-4.9844-0.89453-9.2383-7.6172-9.9102-12.207-0.44922-3.0781-0.89453-6.1055-1.2891-9.1836-0.67188-4.7031 2.2383-11.426 8.1211-7.3359 17.527 12.207 21.223 34.719 29.008 53.367 8.8477 21.223 19.77 41.496 32.258 60.871 1.9023 2.9688 3.5859 8.793 1.1211 11.984-2.2969 3.0234-6.9453 1.6797-9.2969-0.67188-30.129-30.688-76.664-31.191-115.3-43.848-5.1523-1.6797-9.0156-7-9.9102-12.207-0.61719-3.7539 0.78516-9.9102 6.0469-8.1758 26.938 8.793 56.504 12.488 82.992 22.734-127.91-100.13-247.86-210.45-358.41-329.67-32.367-34.887-63.953-70.617-94.695-107.02-2.8008-3.3594-5.9922-10.359-2.8555-14.504z"/>
  <use x="70" y="644" xlink:href="#t"/>
  <use x="90.550781" y="644" xlink:href="#e"/>
  <use x="104.359375" y="644" xlink:href="#a"/>
  <use x="123.347656" y="644" xlink:href="#i"/>
  <use x="142.242188" y="644" xlink:href="#d"/>
  <use x="155.628906" y="644" xlink:href="#a"/>
  <use x="174.617188" y="644" xlink:href="#c"/>
  <use x="204.410156" y="644" xlink:href="#h"/>
  <use x="224.453125" y="644" xlink:href="#g"/>
  <use x="252.453125" y="644" xlink:href="#f"/>
  <use x="271.070312" y="644" xlink:href="#s"/>
  <use x="280.671875" y="644" xlink:href="#c"/>
  <use x="300.710938" y="644" xlink:href="#c"/>
  <use x="320.757812" y="644" xlink:href="#b"/>
  <use x="70" y="672" xlink:href="#r"/>
  <use x="82.183594" y="672" xlink:href="#e"/>
  <use x="95.992188" y="672" xlink:href="#b"/>
  <use x="115.226562" y="672" xlink:href="#q"/>
  <use x="154.152344" y="672" xlink:href="#d"/>
  <use x="167.535156" y="672" xlink:href="#p"/>
  <use x="187.46875" y="672" xlink:href="#a"/>
  <use x="216.207031" y="672" xlink:href="#o"/>
  <use x="239.640625" y="672" xlink:href="#b"/>
  <use x="258.878906" y="672" xlink:href="#n"/>
  <use x="278.8125" y="672" xlink:href="#m"/>
  <use x="308.492188" y="672" xlink:href="#l"/>
  <use x="329.015625" y="672" xlink:href="#e"/>
  <use x="342.820312" y="672" xlink:href="#b"/>
  <use x="362.058594" y="672" xlink:href="#k"/>
  <use x="371.65625" y="672" xlink:href="#a"/>
  <use x="390.648438" y="672" xlink:href="#j"/>
  <use x="407.242188" y="672" xlink:href="#d"/>
</svg>
